<svg id="SvgjsSvg1018" width="25" height="25" xmlns="http://www.w3.org/2000/svg" version="1.1" xmlns:xlink="http://www.w3.org/1999/xlink" xmlns:svgjs="http://svgjs.com/svgjs"><g id="SvgjsG1032" transform="matrix(0.69,0,0,0.69,44.640000000000015,44.640000000000015)" fill="#1a947d"><circle id="SvgjsCircle1033" r="144" cx="144" cy="144"></circle><rect id="SvgjsRect1034" width="170" height="170" x="118" y="118" rx="26" ry="26"></rect></g><defs id="SvgjsDefs1019"></defs><g id="SvgjsG1020" transform="matrix(0.44,0,0,0.44,80.64,80.6400002635736)"><svg xmlns="http://www.w3.org/2000/svg" data-name="1" viewBox="0 0 128 128" width="288" height="288"><path fill="#ffffff" d="M98 63V9.75A7.9 7.9 0 0 0 90 2H38a7.9 7.9 0 0 0-8 7.75v108.5a7.9 7.9 0 0 0 8 7.75h52a7.9 7.9 0 0 0 8-7.75Z" class="colorfff svgShape"></path><path fill="#757575" d="M90 0H38a9.89 9.89 0 0 0-10 9.75v108.5A9.89 9.89 0 0 0 38 128h52a9.89 9.89 0 0 0 10-9.75V9.75A9.89 9.89 0 0 0 90 0Zm6 118.25a5.89 5.89 0 0 1-6 5.75H38a5.89 5.89 0 0 1-6-5.75V9.75A5.89 5.89 0 0 1 38 4h10a4.16 4.16 0 0 0 4 4h24a4.3 4.3 0 0 0 4-4h10a5.89 5.89 0 0 1 6 5.75Z" class="color757575 svgShape"></path></svg></g></svg>