<svg xmlns="http://www.w3.org/2000/svg" width="25" height="25" fill="none" viewBox="0 0 25 25" id="telegram">
  <rect width="25" height="25" fill="#419FD9" rx="12.5"></rect>
  <rect width="25" height="25" fill="url(#paint0_linear)" rx="12.5"></rect>
  <path fill="#fff" d="M5.3915 12.2312C9.3658 10.1831 11.841 9.15904 13.0677 8.64817C16.538 7.1409 17.2372 6.91381 17.6947 6.90554C17.7964 6.90378 17.9848 6.9235 18.1184 7.05503C18.2324 7.16388 18.264 7.31516 18.2823 7.41312C18.3006 7.51108 18.3174 7.78511 18.2997 8.00842C18.0909 10.0675 17.2812 14.7922 16.8845 17.0913C16.6826 18.0741 16.2148 18.3548 15.7644 18.3786C15.0325 18.4207 14.4608 17.5255 13.4237 16.8736C12.3098 16.086 11.5984 15.5311 10.5575 14.698C9.35467 13.8604 10.1813 13.4177 10.846 12.6962C11.021 12.511 14.2448 9.78846 14.3105 9.54324C14.3176 9.51289 14.3246 9.37098 14.2536 9.29063C14.1826 9.21029 14.0611 9.2297 13.9891 9.24782C13.8453 9.28728 11.8988 10.903 8.71658 13.5568C8.3367 13.819 7.98738 13.9643 7.66504 13.9547C7.2633 13.9436 6.423 13.6165 5.81004 13.3705C5.04212 13.0476 4.42536 12.8574 4.479 12.4198C4.50791 12.2267 4.82702 12.0374 5.3915 12.2312Z"></path>
  <defs>
    <linearGradient id="paint0_linear" x1="12.5" x2="12.5" y2="25" gradientUnits="userSpaceOnUse">
      <stop stop-color="#2AABEE"></stop>
      <stop offset="1" stop-color="#229ED9"></stop>
    </linearGradient>
  </defs>
</svg>
